<?xml version="1.0" encoding="UTF-8" standalone="no"?>
<!-- Generator: Adobe Illustrator 19.0.0, SVG Export Plug-In . SVG Version: 6.00 Build 0)  -->

<svg
   xmlns:dc="http://purl.org/dc/elements/1.1/"
   xmlns:cc="http://creativecommons.org/ns#"
   xmlns:rdf="http://www.w3.org/1999/02/22-rdf-syntax-ns#"
   xmlns:svg="http://www.w3.org/2000/svg"
   xmlns="http://www.w3.org/2000/svg"
   xmlns:sodipodi="http://sodipodi.sourceforge.net/DTD/sodipodi-0.dtd"
   xmlns:inkscape="http://www.inkscape.org/namespaces/inkscape"
   version="1.1"
   id="Capa_1"
   x="0px"
   y="0px"
   viewBox="0 0 511.999 511.999"
   style="enable-background:new 0 0 511.999 511.999;"
   xml:space="preserve"
   sodipodi:docname="002-heartbeat.svg"
   inkscape:version="0.92.4 (5da689c313, 2019-01-14)"><metadata
   id="metadata3984"><rdf:RDF><cc:Work
       rdf:about=""><dc:format>image/svg+xml</dc:format><dc:type
         rdf:resource="http://purl.org/dc/dcmitype/StillImage" /></cc:Work></rdf:RDF></metadata><defs
   id="defs3982" /><sodipodi:namedview
   pagecolor="#ffffff"
   bordercolor="#666666"
   borderopacity="1"
   objecttolerance="10"
   gridtolerance="10"
   guidetolerance="10"
   inkscape:pageopacity="0"
   inkscape:pageshadow="2"
   inkscape:window-width="1920"
   inkscape:window-height="1001"
   id="namedview3980"
   showgrid="false"
   inkscape:zoom="1.5781281"
   inkscape:cx="242.32806"
   inkscape:cy="302.60405"
   inkscape:window-x="-9"
   inkscape:window-y="-9"
   inkscape:window-maximized="1"
   inkscape:current-layer="Capa_1" />
<path
   style="fill:#FE7C7A;"
   d="M321.15,56.899c-36.296,0-69.028,15.639-92.15,40.702c-23.122-25.063-55.854-40.702-92.15-40.702  C66.793,56.899,10,115.151,10,187.009c0,100.654,219,268.09,219,268.09s219-167.435,219-268.09  C448,115.151,391.207,56.899,321.15,56.899z"
   id="path3939" />
<circle
   style="fill:#C6EF9A;"
   cx="424"
   cy="249.279"
   r="78"
   id="circle3941" />
<path
   d="M338.859,344.259l-0.284,0.29c-3.865,3.945-3.8,10.276,0.145,14.142c1.946,1.907,4.473,2.857,6.998,2.857  c2.593,0,5.185-1.003,7.144-3.001l0.284-0.29c3.865-3.945,3.8-10.276-0.145-14.142C349.056,340.25,342.725,340.315,338.859,344.259z  "
   id="path3943" />
<path
   d="M460.574,239.276H434v-26.574c0-5.523-4.477-10-10-10s-10,4.477-10,10v26.574h-26.574c-5.523,0-10,4.477-10,10  s4.477,10,10,10H414v26.574c0,5.523,4.477,10,10,10s10-4.477,10-10v-26.574h26.574c5.523,0,10-4.477,10-10  S466.097,239.276,460.574,239.276z"
   id="path3945" />
<path
   d="M 456.694,167.577 C 447.354,98.547 389.646,46.899 321.149,46.899 286.572,46.899 254.227,59.788 229,83.413 203.772,59.788 171.427,46.899 136.851,46.899 61.391,46.899 0,109.752 0,187.009 c 0,15.264 4.453,32.373 13.312,51.259 l 10.65,20 c 18.677,31.62 48.213,67.577 88.487,107.623 54.58,54.271 109.924,96.73 110.477,97.153 1.792,1.371 3.933,2.056 6.074,2.056 2.141,0 4.281,-0.685 6.074,-2.056 0.422,-0.323 42.75,-32.781 89.658,-77.007 4.019,-3.789 4.205,-10.118 0.416,-14.136 -3.788,-4.018 -10.117,-4.205 -14.136,-0.416 -35.774,33.729 -68.801,60.472 -82.011,70.92 -15.698,-12.42 -59.4,-47.873 -102.593,-90.838 C 91.828,317.168 65.356,285.82 47.459,258.268 L 35.624,238.269 C 25.287,218.753 20,201.552 20,187.009 20,120.78 72.419,66.899 136.851,66.899 c 32.384,0 62.5,13.312 84.799,37.482 1.894,2.052 4.558,3.219 7.35,3.219 2.792,0 5.457,-1.167 7.35,-3.219 22.299,-24.17 52.415,-37.482 84.799,-37.482 55.707,0 103.068,40.174 114.325,95.125 -3.757,-0.491 -7.586,-0.748 -11.475,-0.748 -48.523,0 -88,39.477 -88,88 0,48.523 39.477,88 88,88 48.523,0 88,-39.477 88,-88 C 512,212.3 489.075,180.582 456.694,167.577 Z M 424,317.276 c -37.495,0 -68,-30.505 -68,-68 0,-37.495 30.505,-68 68,-68 37.495,0 68,30.505 68,68 0,37.495 -30.505,68 -68,68 z"
   id="path3947"
   inkscape:connector-curvature="0"
   sodipodi:nodetypes="cscssccscsccccccccsscscscsssccsssss" />
<g
   id="g3949">
</g>
<g
   id="g3951">
</g>
<g
   id="g3953">
</g>
<g
   id="g3955">
</g>
<g
   id="g3957">
</g>
<g
   id="g3959">
</g>
<g
   id="g3961">
</g>
<g
   id="g3963">
</g>
<g
   id="g3965">
</g>
<g
   id="g3967">
</g>
<g
   id="g3969">
</g>
<g
   id="g3971">
</g>
<g
   id="g3973">
</g>
<g
   id="g3975">
</g>
<g
   id="g3977">
</g>
</svg>