<?xml version="1.0" encoding="UTF-8" standalone="no"?>
<svg
   xmlns:dc="http://purl.org/dc/elements/1.1/"
   xmlns:cc="http://creativecommons.org/ns#"
   xmlns:rdf="http://www.w3.org/1999/02/22-rdf-syntax-ns#"
   xmlns:svg="http://www.w3.org/2000/svg"
   xmlns="http://www.w3.org/2000/svg"
   id="svg18"
   version="1.1"
   width="512pt"
   viewBox="-73 0 512 512"
   height="512pt">
  <metadata
     id="metadata24">
    <rdf:RDF>
      <cc:Work
         rdf:about="">
        <dc:format>image/svg+xml</dc:format>
        <dc:type
           rdf:resource="http://purl.org/dc/dcmitype/StillImage" />
        <dc:title></dc:title>
      </cc:Work>
    </rdf:RDF>
  </metadata>
  <defs
     id="defs22" />
  <path
     style="fill:#00ffff"
     id="path2"
     fill="#ff637b"
     d="m356 186c0 93.890625-173 316-173 316s-173-222.109375-173-316 79.109375-176 173-176 173 82.109375 173 176zm0 0" />
  <path
     id="path4"
     fill="#ececf1"
     d="m183 66c-69.214844 0-120 56.535156-120 120 0 66.171875 53.828125 120 120 120 65.449219 0 120-52.96875 120-120 0-66.171875-53.828125-120-120-120zm0 0" />
  <path
     id="path8"
     d="m103 106c5.519531 0 10-4.480469 10-10 0-5.445312-4.425781-10-10-10-5.519531 0-10 4.480469-10 10 0 5.5625 4.539062 10 10 10zm0 0" />
  <path
     id="path10"
     d="m183 512c3.082031 0 5.992188-1.421875 7.890625-3.855469 7.148437-9.179687 175.109375-225.925781 175.109375-322.144531 0-97.34375-81.574219-186-183-186-101.324219 0-183 88.546875-183 186 0 96.21875 167.960938 312.964844 175.109375 322.144531 1.898437 2.433594 4.808594 3.855469 7.890625 3.855469zm-163-326c0-88.429688 76.167969-166 163-166s163 77.570312 163 166c0 74.410156-118.148438 240.070312-163 299.515625-45.175781-59.863281-163-225.292969-163-299.515625zm0 0" />
  <path
     id="path12"
     d="m313 186c0-71.683594-58.316406-130-130-130-17.066406 0-32.828125 3.125-49.605469 9.835938-5.125 2.050781-7.621093 7.871093-5.570312 13 2.054687 5.125 7.871093 7.621093 13 5.570312 14.53125-5.8125 27.539062-8.40625 42.175781-8.40625 60.652344 0 110 49.347656 110 110s-49.347656 110-110 110-110-49.347656-110-110c0-18.824219 4.722656-36.898438 14.03125-53.730469 2.671875-4.832031.921875-10.914062-3.910156-13.589843-4.832032-2.671876-10.917969-.921876-13.589844 3.910156-10.96875 19.824218-16.53125 41.160156-16.53125 63.410156 0 71.683594 58.316406 130 130 130s130-58.316406 130-130zm0 0" />
  <path
     style="fill:#76e2f8"
     id="path6"
     d="m 252.03279,330.79729 c 33.14063,0 60,26.85938 60,60 0,33.14063 -26.85937,60 -60,60 -33.14062,0 -60,-26.85937 -60,-60 0,-33.14062 26.85938,-60 60,-60 z m 0,0" />
  <path
     id="path14"
     d="m 252.03279,460.79729 c 38.59766,0 70,-31.40234 70,-70 0,-38.59765 -31.40234,-70 -70,-70 -38.59765,0 -70,31.40235 -70,70 0,38.59766 31.40235,70 70,70 z m 0,-120 c 27.57032,0 50,22.42969 50,50 0,27.57031 -22.42968,50 -50,50 -27.57031,0 -50,-22.42969 -50,-50 0,-27.57031 22.42969,-50 50,-50 z m 0,0" />
  <path
     id="path16"
     d="m 232.03279,400.79729 h 40 c 5.52344,0 10,-4.47656 10,-10 0,-5.52344 -4.47656,-10 -10,-10 h -40 c -5.52343,0 -10,4.47656 -10,10 0,5.52344 4.47657,10 10,10 z" />
</svg>
