<?xml version="1.0" encoding="UTF-8" standalone="no"?>
<svg
   xmlns:dc="http://purl.org/dc/elements/1.1/"
   xmlns:cc="http://creativecommons.org/ns#"
   xmlns:rdf="http://www.w3.org/1999/02/22-rdf-syntax-ns#"
   xmlns:svg="http://www.w3.org/2000/svg"
   xmlns="http://www.w3.org/2000/svg"
   xml:space="preserve"
   style="enable-background:new 0 0 511.999 511.999;"
   viewBox="0 0 511.999 511.999"
   y="0px"
   x="0px"
   id="Capa_1"
   version="1.1"><metadata
   id="metadata53"><rdf:RDF><cc:Work
       rdf:about=""><dc:format>image/svg+xml</dc:format><dc:type
         rdf:resource="http://purl.org/dc/dcmitype/StillImage" /><dc:title></dc:title></cc:Work></rdf:RDF></metadata><defs
   id="defs51" />








<g
   id="g18">
</g>
<g
   id="g20">
</g>
<g
   id="g22">
</g>
<g
   id="g24">
</g>
<g
   id="g26">
</g>
<g
   id="g28">
</g>
<g
   id="g30">
</g>
<g
   id="g32">
</g>
<g
   id="g34">
</g>
<g
   id="g36">
</g>
<g
   id="g38">
</g>
<g
   id="g40">
</g>
<g
   id="g42">
</g>
<g
   id="g44">
</g>
<g
   id="g46">
</g>
<g
   transform="matrix(0.96678202,0,0,0.97457252,14.547495,6.1325413)"
   id="g426"><g
     id="g373"><path
       style="fill:#56788b"
       d="m 338.322,148.892 -70.65,0.38 -175.45,0.93 c -5.27,-25.77 -6.5,-57.27 1.58,-82.31 9.83,-31.92 43.17,-47.02 72.38,-54.15 45.54,-11.14 113.57,-10.6 132.09,28.93 1.18,2.9 3.86,4.93 6.98,5.27 38.19,3.71 40.76,60.76 33.07,100.95 z"
       id="path347" /><path
       style="fill:#415e6f"
       d="m 338.322,148.892 -70.65,0.38 10.68,-44.77 c -19.72,-59.14 26.9,-56.56 26.9,-56.56 38.19,3.71 40.76,60.76 33.07,100.95 z"
       id="path349" /><path
       style="fill:#ff6b81"
       d="m 414.502,504.502 h -395.5 c 0,-56.04 -15.7,-154.29 139.85,-165.28 9.38,-0.66 19.38,-1.01 30.04,-1.01 h 55.72 c 10.66,0 20.65,0.34 30.02,1.01 23.61,1.67 43.28,5.34 59.65,10.58 91.52,29.26 80.22,107.17 80.22,154.7 z"
       id="path351" /><path
       style="fill:#ed2061"
       d="m 414.502,504.502 h -20 c 0,-43.74 9.57,-118.69 -60.22,-154.7 91.52,29.26 80.22,107.17 80.22,154.7 z"
       id="path353" /><path
       style="fill:#d9f0f4"
       d="m 274.632,339.222 v 0.02 c -1.54,30.62 -26.86,54.97 -57.88,54.97 -31.01,0 -56.33,-24.34 -57.88,-54.94 l -0.02,-0.05 c 9.38,-0.66 19.38,-1.01 30.04,-1.01 h 55.72 c 10.66,0 20.65,0.34 30.02,1.01 z"
       id="path355" /><g
       style="fill:#fab684"
       id="g361"><path
         d="m 325.54,144.988 h -17.448 l 0.11,45.691 h 17.337 c 12.616,0 22.844,-10.228 22.844,-22.846 0,-12.618 -10.226,-22.845 -22.843,-22.845 z"
         id="path357" /><path
         d="m 83.91,167.833 c 0,12.617 10.228,22.846 22.844,22.846 h 17.337 l 0.11,-45.691 h -17.448 c -12.615,0 -22.843,10.228 -22.843,22.845 z"
         id="path359" /></g><path
       style="fill:#fab684"
       d="m 244.613,306.501 h -55.718 c 2.331,6.319 3.534,22.528 0,31.708 0,15.39 12.473,27.866 27.859,27.866 15.386,0 27.859,-12.476 27.859,-27.866 -3.535,-9.18 -2.331,-25.389 0,-31.708 z"
       id="path363" /><path
       style="fill:#fdd9b4"
       d="m 309.712,222.172 c 0,22.12 -18.81,48.54 -55.92,78.55 -10.41,8.45 -23.82,13.06 -37.24,13.03 -3.36,0.01 -6.7,-0.28 -9.97,-0.84 -9.8,-1.68 -19.06,-5.86 -26.86,-12.19 -37.11,-30.01 -55.92,-56.43 -55.92,-78.55 0,-2.35 0.09,-4.7 0.28,-7.01 0.96,-9.65 0.68,-53.71 0.66,-82.16 v -0.03 c -0.25,-9.64 5.15,-18.55 13.82,-22.8 18.94,-8.42 48.55,-12.62 78.19,-12.6 21.27,-0.01 42.52,2.14 59.83,6.48 6.81,1.7 13.02,3.74 18.37,6.12 8.66,4.25 14.06,13.16 13.81,22.8 v 0.03 c -0.02,28.45 -0.29,72.51 0.66,82.16 0.19,2.31 0.29,4.66 0.29,7.01 z"
       id="path365" /><path
       style="fill:#f9c19b"
       d="m 309.712,222.172 c 0,22.12 -18.81,48.54 -55.92,78.55 -10.41,8.45 -23.82,13.06 -37.24,13.03 -3.36,0.01 -6.7,-0.28 -9.97,-0.84 9.92,-1.68 19.4,-5.86 27.21,-12.19 37.11,-30.01 55.92,-56.43 55.92,-78.55 0,-2.35 -0.1,-4.7 -0.29,-7.01 -0.95,-9.65 -0.68,-53.71 -0.66,-82.16 v -7.03 c 0.23,-9.02 -4.48,-17.4 -12.18,-21.92 6.81,1.7 13.02,3.74 18.37,6.12 8.66,4.25 14.06,13.16 13.81,22.8 v 0.03 c -0.02,28.45 -0.29,72.51 0.66,82.16 0.19,2.31 0.29,4.66 0.29,7.01 z"
       id="path367" /><path
       style="fill:#09eaa3"
       d="m 493.442,360.872 c 0,48.49 -39.33,87.79 -87.84,87.79 -3.38,0 -6.72,-0.19 -10,-0.57 -43.8,-4.95 -77.84,-42.11 -77.84,-87.22 0,-45.11 34.04,-82.27 77.84,-87.22 3.28,-0.38 6.62,-0.57 10,-0.57 48.51,0 87.84,39.3 87.84,87.79 z"
       id="path369" /><path
       style="fill:#14bb87"
       d="m 493.442,360.872 c 0,48.49 -39.33,87.79 -87.84,87.79 -3.38,0 -6.72,-0.19 -10,-0.57 43.8,-4.95 77.84,-42.11 77.84,-87.22 0,-45.11 -34.04,-82.27 -77.84,-87.22 3.28,-0.38 6.62,-0.57 10,-0.57 48.51,0 87.84,39.3 87.84,87.79 z"
       id="path371" /></g><g
     id="g393"><path
       d="m 40.567,387.891 c -3.491,-2.231 -8.127,-1.211 -10.359,2.279 -20.362,31.85 -19.557,69.764 -18.91,100.229 0.105,4.978 0.206,9.679 0.206,14.104 0,4.142 3.358,7.5 7.5,7.5 4.142,0 7.5,-3.358 7.5,-7.5 0,-4.583 -0.102,-9.363 -0.209,-14.422 -0.604,-28.434 -1.355,-63.821 16.551,-91.83 2.231,-3.492 1.211,-8.129 -2.279,-10.36 z"
       id="path375" /><path
       d="m 287.491,332.819 c -11.515,-1.221 -23.964,-1.917 -37.081,-2.075 -0.974,-6.226 -0.468,-14.111 0.5,-18.881 2.65,-1.583 5.189,-3.354 7.593,-5.307 38.955,-31.501 58.707,-59.892 58.707,-84.383 0,-2.553 -0.105,-5.121 -0.314,-7.631 -0.003,-0.039 -0.006,-0.078 -0.01,-0.117 -0.271,-2.739 -0.437,-8.622 -0.537,-16.246 h 9.191 c 16.732,0 30.344,-13.613 30.344,-30.346 0,-8.622 -3.614,-16.416 -9.407,-21.945 5.028,-29.872 4.522,-67.642 -11.404,-88.923 -7.316,-9.776 -17.104,-15.323 -28.997,-16.476 -0.383,-0.042 -0.711,-0.29 -0.857,-0.646 -0.048,-0.119 -0.1,-0.237 -0.154,-0.354 C 295.637,19.37 274.332,6.332 243.453,1.785 219.666,-1.717 190.854,-0.014 164.407,6.458 122.297,16.729 95.402,37.21 86.661,65.593 c -7.222,22.391 -8.127,52.105 -2.57,82.085 -4.775,5.364 -7.68,12.427 -7.68,20.156 0,16.733 13.612,30.346 30.344,30.346 h 10.405 c -0.1,7.624 -0.266,13.507 -0.537,16.247 -0.004,0.038 -0.007,0.077 -0.01,0.115 -0.208,2.509 -0.314,5.077 -0.314,7.633 0,24.492 19.752,52.882 58.695,84.373 2.415,1.961 4.959,3.74 7.607,5.328 0.966,4.771 1.47,12.648 0.498,18.87 -57.352,0.665 -99.125,11.299 -127.578,32.454 -3.324,2.471 -4.015,7.169 -1.543,10.494 1.472,1.979 3.733,3.025 6.024,3.025 1.556,0 3.125,-0.482 4.469,-1.482 20.258,-15.061 49.684,-24.414 87.751,-27.934 5.246,31.064 32.245,54.41 64.534,54.41 32.301,0 59.3,-23.355 64.537,-54.43 1.557,0.142 3.097,0.294 4.619,0.455 0.269,0.029 0.536,0.042 0.8,0.042 3.787,0 7.041,-2.859 7.449,-6.709 0.435,-4.122 -2.551,-7.816 -6.67,-8.252 z m 38.049,-149.64 h -9.306 c -0.037,-9.761 -0.023,-20.552 -0.005,-30.691 h 9.311 c 8.461,0 15.344,6.884 15.344,15.345 0,8.461 -6.883,15.346 -15.344,15.346 z M 323.063,65.952 c 12.254,16.375 12.903,47.346 9.406,72.335 -2.226,-0.522 -4.546,-0.799 -6.929,-0.799 h -9.284 c 0.002,-1.505 0.004,-2.979 0.005,-4.417 0.285,-12.503 -6.776,-24.127 -18.011,-29.633 -0.084,-0.041 -0.168,-0.081 -0.253,-0.118 -4.103,-1.824 -8.701,-3.479 -13.716,-4.953 -4.665,-15.745 -4.354,-27.699 0.942,-34.715 6.201,-8.216 18.124,-8.249 19.524,-8.222 7.618,0.793 13.612,4.236 18.316,10.522 z M 106.754,183.179 c -8.46,0 -15.344,-6.884 -15.344,-15.346 0,-8.462 6.883,-15.345 15.344,-15.345 h 10.524 c 0.019,10.141 0.032,20.932 -0.004,30.691 z m 24.543,38.994 c 0,-2.125 0.087,-4.256 0.258,-6.337 0.829,-8.56 0.768,-40.177 0.713,-68.08 -0.01,-5.185 -0.02,-10.174 -0.023,-14.78 0,-0.065 -0.001,-0.13 -0.002,-0.195 -0.173,-6.652 3.551,-12.846 9.497,-15.816 5.847,-2.584 13.004,-4.821 21.276,-6.648 4.044,-0.894 6.599,-4.896 5.706,-8.941 -0.894,-4.044 -4.894,-6.595 -8.941,-5.706 -9.316,2.058 -17.482,4.631 -24.271,7.649 -0.085,0.038 -0.17,0.078 -0.253,0.119 -11.234,5.505 -18.295,17.127 -18.011,29.63 0.001,1.436 0.003,2.911 0.005,4.419 h -10.497 c -3.116,0 -6.124,0.472 -8.956,1.349 -3.941,-25.448 -2.864,-50.038 3.167,-68.735 9.009,-29.25 41.405,-42.83 67.001,-49.073 24.642,-6.03 51.36,-7.636 73.301,-4.404 16.947,2.496 38.686,9.094 48.656,26.252 -5.682,1.948 -11.848,5.422 -16.562,11.595 -7.34,9.611 -9.196,23.026 -5.559,39.981 -15.05,-2.844 -32.404,-4.376 -50.714,-4.376 h -0.325 c -7.155,0.002 -14.327,0.229 -21.299,0.7 -4.133,0.28 -7.256,3.856 -6.977,7.989 0.279,4.132 3.851,7.25 7.989,6.977 6.535,-0.442 13.253,-0.666 19.989,-0.666 h 0.597 c 29.958,0 57.851,4.439 74.706,11.89 5.946,2.971 9.669,9.164 9.496,15.815 -0.001,0.063 -0.002,0.155 -0.002,0.218 -0.003,4.598 -0.013,9.604 -0.023,14.806 -0.054,27.88 -0.115,59.471 0.714,68.028 0.171,2.083 0.258,4.215 0.258,6.338 0,19.462 -18.375,44.608 -53.151,72.73 -8.917,7.243 -20.726,11.341 -32.524,11.349 -11.619,0.059 -23.039,-4 -32.098,-11.36 -34.766,-28.109 -53.141,-53.255 -53.141,-72.717 z m 85.071,99.079 h 0.341 c 6.243,0 12.412,-0.871 18.32,-2.547 -0.383,6.972 0.109,14.671 2.05,20.684 -0.613,10.683 -9.495,19.186 -20.325,19.186 -10.83,0 -19.712,-8.503 -20.325,-19.186 1.938,-6 2.431,-13.68 2.053,-20.64 5.793,1.648 11.815,2.503 17.886,2.503 z m 0.386,65.457 c -24.385,0 -44.855,-17.267 -49.478,-40.476 4.852,-0.244 9.829,-0.402 14.93,-0.476 3.466,15.886 17.64,27.818 34.548,27.818 16.908,0 31.082,-11.931 34.548,-27.818 5.093,0.073 10.075,0.231 14.931,0.471 -4.62,23.213 -25.089,40.481 -49.479,40.481 z"
       id="path377" /><path
       d="m 414.999,472.171 c -4.134,-0.034 -7.542,3.263 -7.594,7.405 -0.045,3.579 -0.12,7.083 -0.192,10.491 -0.107,5.064 -0.209,9.848 -0.209,14.435 0,4.142 3.358,7.5 7.5,7.5 4.142,0 7.5,-3.358 7.5,-7.5 0,-4.428 0.1,-9.134 0.206,-14.117 0.073,-3.45 0.148,-6.997 0.194,-10.621 0.053,-4.141 -3.263,-7.541 -7.405,-7.593 z"
       id="path379" /><path
       d="m 405.602,265.58 c -5.585,0 -11.184,0.487 -16.64,1.448 -4.08,0.718 -6.804,4.607 -6.086,8.687 0.718,4.08 4.611,6.805 8.687,6.086 4.6,-0.81 9.324,-1.22 14.04,-1.22 44.301,0 80.342,36.019 80.342,80.292 0,44.273 -36.042,80.292 -80.342,80.292 -44.3,0 -80.342,-36.019 -80.342,-80.292 0,-27.629 13.95,-52.982 37.317,-67.822 3.497,-2.22 4.531,-6.855 2.311,-10.352 -2.22,-3.496 -6.854,-4.531 -10.352,-2.311 -27.724,17.606 -44.276,47.693 -44.276,80.484 0,52.544 42.77,95.292 95.342,95.292 52.572,0 95.342,-42.748 95.342,-95.292 0,-52.544 -42.771,-95.292 -95.343,-95.292 z"
       id="path385" /><path
       d="m 104.985,470.97 c -1.404,-0.032 -4.147,0.324 -6.818,2.947 -2.943,2.89 -6.855,9.205 -6.855,30.585 0,4.142 3.358,7.5 7.5,7.5 4.142,0 7.5,-3.358 7.5,-7.5 0,-13.057 1.569,-17.991 2.248,-19.515 2.222,-1.268 3.739,-3.641 3.789,-6.384 0.074,-4.141 -3.222,-7.559 -7.364,-7.633 z"
       id="path387" /><path
       d="m 335.34,473.917 c -2.67,-2.623 -5.422,-2.981 -6.818,-2.947 -4.142,0.074 -7.438,3.492 -7.364,7.634 0.05,2.744 1.566,5.117 3.789,6.384 0.679,1.524 2.248,6.458 2.248,19.515 0,4.142 3.358,7.5 7.5,7.5 4.142,0 7.5,-3.358 7.5,-7.5 0,-21.381 -3.912,-27.696 -6.855,-30.586 z"
       id="path389" /><path
       d="m 372.556,368.372 h 25.546 v 25.546 c 0,4.142 3.358,7.5 7.5,7.5 4.142,0 7.5,-3.358 7.5,-7.5 v -25.546 h 25.547 c 4.142,0 7.5,-3.358 7.5,-7.5 0,-4.142 -3.358,-7.5 -7.5,-7.5 h -25.547 v -25.546 c 0,-4.142 -3.358,-7.5 -7.5,-7.5 -4.142,0 -7.5,3.358 -7.5,7.5 v 25.546 h -25.546 c -4.142,0 -7.5,3.358 -7.5,7.5 0,4.142 3.358,7.5 7.5,7.5 z"
       id="path391" /></g></g></svg>